stateDiagram-v2
    direction LR
    [*] --> q0
    q0 --> q1: ε
    q0 --> q4: ε
    q1 --> q2: =
    q2 --> q3: =
    q4 --> q5: barra inversa
    q5 --> q6: =
    q6 --> q7: =
    state "q2 / OP_EQ" as q2
    state "q3 / OP_EQEQ" as q3
    state "q6 / OP_NEQ" as q6
    state "q7 / OP_NEQEQ" as q7
